[Header]
FileType HTR
DataType HTRS
FileVersion 1
NumSegments 22
NumFrames 8
DataFrameRate 24
EulerRotationOrder ZYX
CalibrationUnits mm
RotationUnits Degrees
GlobalAxisofGravity Y
BoneLengthAxis Y
ScaleFactor 1.0
[SegmentNames&Hierarchy]
reference	GLOBAL
Hips	reference
Spine	Hips
Spine1	Spine
Neck	Spine1
Head	Neck
LeftShoulder	Spine1
LeftArm	LeftShoulder
LeftForeArm	LeftArm
LeftHand	LeftForeArm
RightShoulder	Spine1
RightArm	RightShoulder
RightForeArm	RightArm
RightHand	RightForeArm
LeftUpLeg	Hips
LeftLeg	LeftUpLeg
LeftFoot	LeftLeg
LeftToeBase	LeftFoot
RightUpLeg	Hips
RightLeg	RightUpLeg
RightFoot	RightLeg
RightToeBase	RightFoot
[BasePosition]
reference	0	0	0	0	0	0	1
Hips	0	0	0	0	0	0	1
Spine	0	0	0	0	-0	90	1
Spine1	0	0	0	0	0	0	1
Neck	0	0	0	-7.352327771	-7.352327771	90	1
Head	0	0	0	0	-0	90	1
LeftShoulder	0	0	0	0	0	0	1
LeftArm	0	0	0	0	0	0	1
LeftForeArm	0	0	0	0	0	0	1
LeftHand	0	0	0	0	0	0	1
RightShoulder	0	0	0	0	-0	180	1
RightArm	0	0	0	0	-0	180	1
RightForeArm	0	0	0	0	-0	180	1
RightHand	0	0	0	0	-0	180	1
LeftUpLeg	0	0	0	0	-0	-90	1
LeftLeg	0	0	0	0	-0	-90	1
LeftFoot	0	0	0	66.57146043	-66.57146043	-90	1
LeftToeBase	0	0	0	0	-90	0	1
RightUpLeg	0	0	0	0	-0	-90	1
RightLeg	0	0	0	0	-0	-90	1
RightFoot	0	0	0	66.57146043	-66.57146043	-90	1
RightToeBase	0	0	0	0	-90	0	1
[reference]
19	0	0	0	0	-0	0	1.0
20	0	0	0	0	-0	0	1.0
21	0	0	0	0	-0	0	1.0
22	0	0	0	0	-0	0	1.0
23	0	0	0	0	-0	0	1.0
24	0	0	0	0	-0	0	1.0
25	0	0	0	0	-0	0	1.0
26	0	0	0	0	-0	0	1.0
[Hips]
19	7.025943279	8.302785873	-0.2154772282	8.899654388	-75.18811035	-2.349487782	1.0
20	6.970910549	8.290150642	-0.1558609754	9.422945023	-74.19537354	-3.474214315	1.0
21	6.892886639	8.276650429	-0.0748482272	8.074579239	-72.90792084	-3.314110279	1.0
22	6.816860199	8.263727188	0.01789757237	4.460985184	-71.88206482	-0.4130042791	1.0
23	6.740423203	8.252822876	0.09958616644	2.074387789	-71.12128448	1.402400136	1.0
24	6.679900169	8.245381355	0.149646163	2.464302778	-70.04156494	1.176237702	1.0
25	6.595159531	8.243222237	0.1885563731	4.540979862	-68.98671722	-0.2366030365	1.0
26	6.476808071	8.253891945	0.2285966277	7.484051704	-68.32957458	-3.119193316	1.0
[Spine]
19	0	0.7457100153	0	-11.37291813	2.209920406	-90.38957214	1.0
20	0	0.7457100153	0	-10.95712566	2.595860004	-90.00424957	1.0
21	0	0.7457100153	0	-10.34782887	2.739926577	-89.79656219	1.0
22	0	0.7457100153	0	-9.755279541	2.836693287	-90.32150269	1.0
23	0	0.7457100153	0	-9.024374008	3.13599968	-90.62240601	1.0
24	0	0.7457100153	0	-8.825996399	2.982849598	-90.72901154	1.0
25	0	0.7457100153	0	-9.017819405	2.583378553	-90.39215088	1.0
26	0	0.7457100153	0	-8.578364372	2.405343056	-89.75901794	1.0
[Spine1]
19	0	2.140589952	0	10.32488155	0.6778511405	0.7962244749	1.0
20	0	2.140589952	0	10.54585648	0.7823887467	0.9545273781	1.0
21	0	2.140589952	0	11.14715767	0.8081444502	1.030017734	1.0
22	0	2.140589952	0	11.22214413	0.8655489087	0.7894717455	1.0
23	0	2.140589952	0	11.42663002	1.034604788	0.6166397333	1.0
24	0	2.140589952	0	10.98677731	0.9451281428	0.7272518873	1.0
25	0	2.140589952	0	10.39190388	0.7948552966	0.8551041484	1.0
26	0	2.140589952	0	9.200360298	0.6999658942	1.177369356	1.0
[Neck]
19	0	2.32246995	0	-17.16817284	5.405820847	-90.94443512	1.0
20	0	2.32246995	0	-17.429142	5.169667721	-90.97207642	1.0
21	0	2.32246995	0	-17.37221909	4.928930759	-90.849617	1.0
22	0	2.32246995	0	-17.13956261	4.796424866	-90.57202911	1.0
23	0	2.32246995	0	-17.19525146	4.607134819	-90.40952301	1.0
24	0	2.32246995	0	-17.59425354	4.717099667	-90.58473206	1.0
25	0	2.32246995	0	-17.7883873	4.984103203	-90.60621643	1.0
26	0	2.32246995	0	-17.96630478	5.414763451	-90.65614319	1.0
[Head]
19	0	1.409579992	0.1818799973	-3.736361504	-1.792281985	-91.63585663	1.0
20	0	1.409579992	0.1818799973	-3.977521181	-2.030040503	-91.71110535	1.0
21	0	1.409579992	0.1818799973	-4.086577892	-2.283855677	-91.82131958	1.0
22	0	1.409579992	0.1818799973	-4.036109924	-2.435364723	-91.95143127	1.0
23	0	1.409579992	0.1818799973	-3.80404973	-2.642304897	-91.97920227	1.0
24	0	1.409579992	0.1818799973	-3.231028557	-2.48080349	-92.21176147	1.0
25	0	1.409579992	0.1818799973	-3.085096359	-2.163524866	-92.54050446	1.0
26	0	1.409579992	0.1818799973	-2.258457661	-1.666114688	-92.77874756	1.0
[LeftShoulder]
19	0.3668199778	1.946700096	-0.02662999928	-16.12449837	-12.45481205	-0.6628242135	1.0
20	0.3668199778	1.946700096	-0.02662999928	-14.9379158	-12.64246368	-1.029116988	1.0
21	0.3668199778	1.946700096	-0.02662999928	-14.50434875	-12.676898	-0.9051523209	1.0
22	0.3668199778	1.946700096	-0.02662999928	-14.59969139	-12.451437	-0.5105027556	1.0
23	0.3668199778	1.946700096	-0.02662999928	-14.01776505	-13.16938591	-0.270748198	1.0
24	0.3668199778	1.946700096	-0.02662999928	-14.65386677	-13.30685425	0.4640761614	1.0
25	0.3668199778	1.946700096	-0.02662999928	-13.15858269	-13.48502541	0.6765986085	1.0
26	0.3668199778	1.946700096	-0.02662999928	-13.00316048	-13.29554081	1.674586415	1.0
[LeftArm]
19	1.140689969	0	0	36.60036087	19.46463394	-78.21924591	1.0
20	1.140689969	0	0	35.46430588	19.44246483	-77.73799896	1.0
21	1.140689969	0	0	35.15549088	20.11360168	-77.58062744	1.0
22	1.140689969	0	0	33.98316956	21.53904724	-77.23334503	1.0
23	1.140689969	0	0	32.39690399	22.50935745	-76.52296448	1.0
24	1.140689969	0	0	31.10654449	24.71834373	-76.28936005	1.0
25	1.140689969	0	0	29.18458176	25.38197517	-75.52155304	1.0
26	1.140689969	0	0	27.19372177	27.20582581	-75.54814148	1.0
[LeftForeArm]
19	2.749800205	0	0	-15.44660759	-12.26073647	1.405151963	1.0
20	2.749800205	0	0	-15.00743866	-11.59630966	0.6973177195	1.0
21	2.749800205	0	0	-14.25986576	-11.04411697	-0.2356875092	1.0
22	2.749800205	0	0	-12.07121086	-10.58454514	-1.748700857	1.0
23	2.749800205	0	0	-10.11456585	-10.24005795	-3.146685362	1.0
24	2.749800205	0	0	-8.535948753	-9.534135818	-4.603080273	1.0
25	2.749800205	0	0	-6.675811291	-8.861668587	-5.98943615	1.0
26	2.749800205	0	0	-5.78205061	-7.634606838	-7.136711121	1.0
[LeftHand]
19	2.295179844	0	0	-15.10248375	-7.046542168	-3.140081882	1.0
20	2.295179844	0	0	-14.73635674	-6.636023998	-3.455635309	1.0
21	2.295179844	0	0	-14.11394691	-6.113070011	-3.158752918	1.0
22	2.295179844	0	0	-12.04693604	-5.438951492	-3.883358717	1.0
23	2.295179844	0	0	-10.1948185	-5.241891861	-4.4185009	1.0
24	2.295179844	0	0	-8.610203743	-5.179494858	-6.845389843	1.0
25	2.295179844	0	0	-6.817744255	-4.579796791	-8.056077957	1.0
26	2.295179844	0	0	-5.929825783	-3.899873018	-9.642809868	1.0
[RightShoulder]
19	-0.3601199985	1.946700096	-0.02662999928	-6.308685303	3.332331657	174.5223694	1.0
20	-0.3601199985	1.946700096	-0.02662999928	-6.722053528	3.497847319	174.3760223	1.0
21	-0.3601199985	1.946700096	-0.02662999928	-6.682061672	3.681491137	174.5866394	1.0
22	-0.3601199985	1.946700096	-0.02662999928	-6.840274811	3.790062428	174.612381	1.0
23	-0.3601199985	1.946700096	-0.02662999928	-7.009275913	3.542265892	174.5966187	1.0
24	-0.3601199985	1.946700096	-0.02662999928	-7.353381157	3.525252581	174.1329498	1.0
25	-0.3601199985	1.946700096	-0.02662999928	-7.588419437	3.469027519	173.7951508	1.0
26	-0.3601199985	1.946700096	-0.02662999928	-8.000462532	3.301885843	173.2612915	1.0
[RightArm]
19	-1.140689969	0	0	58.01155853	1.80500555	-96.14179993	1.0
20	-1.140689969	0	0	60.73034286	2.957339287	-96.19281006	1.0
21	-1.140689969	0	0	63.31068039	4.386712074	-96.35980988	1.0
22	-1.140689969	0	0	64.99438477	6.043616295	-96.48451233	1.0
23	-1.140689969	0	0	68.5887146	7.629046917	-96.52087402	1.0
24	-1.140689969	0	0	68.36141968	9.367607117	-96.79719543	1.0
25	-1.140689969	0	0	69.20425415	10.82257843	-96.8394928	1.0
26	-1.140689969	0	0	70.47299957	11.31482506	-96.26979065	1.0
[RightForeArm]
19	-2.749800205	0	0	0.4299299717	20.63023949	176.298645	1.0
20	-2.749800205	0	0	1.502165079	22.13652611	177.0135345	1.0
21	-2.749800205	0	0	2.804151297	23.69627953	176.8567657	1.0
22	-2.749800205	0	0	5.936467171	25.5250988	178.1594238	1.0
23	-2.749800205	0	0	6.246003628	27.97103882	177.3617554	1.0
24	-2.749800205	0	0	8.709935188	31.7382164	179.4622345	1.0
25	-2.749800205	0	0	9.910497665	35.51957703	180.3295135	1.0
26	-2.749800205	0	0	10.53642273	38.99700928	180.0131226	1.0
[RightHand]
19	-2.295179844	0	0	0.5201022029	10.41003036	173.5745544	1.0
20	-2.295179844	0	0	1.396944284	11.12304878	172.9559479	1.0
21	-2.295179844	0	0	2.753466606	11.99916935	173.2509918	1.0
22	-2.295179844	0	0	5.528069973	12.7786684	172.6231384	1.0
23	-2.295179844	0	0	6.031462669	13.57977009	172.6177521	1.0
24	-2.295179844	0	0	7.967329979	14.22218227	172.9082489	1.0
25	-2.295179844	0	0	8.875309944	14.54707718	172.7234802	1.0
26	-2.295179844	0	0	9.618527412	14.96965885	173.0413818	1.0
[LeftUpLeg]
19	0.9094099998	0	0	-13.83819771	-3.060976982	87.06754303	1.0
20	0.9094099998	0	0	-15.14148521	-2.387806416	86.81628418	1.0
21	0.9094099998	0	0	-14.36136055	-3.817150116	86.53153992	1.0
22	0.9094099998	0	0	-12.67621994	-5.433508396	85.72297668	1.0
23	0.9094099998	0	0	-10.40924358	-4.77986145	85.36170959	1.0
24	0.9094099998	0	0	-8.680500984	-1.943635821	85.27998352	1.0
25	0.9094099998	0	0	-5.548401833	-0.163446635	85.7646637	1.0
26	0.9094099998	0	0	-0.6646890044	0.2311754823	87.14680481	1.0
[LeftLeg]
19	0	-4.498080254	0	26.79656792	-9.508073807	83.38606262	1.0
20	0	-4.498080254	0	32.74910736	-12.29344177	81.06273651	1.0
21	0	-4.498080254	0	35.3899765	-12.94093323	79.64032745	1.0
22	0	-4.498080254	0	35.29977417	-13.29039288	78.41165161	1.0
23	0	-4.498080254	0	33.52308655	-13.67596436	77.62028503	1.0
24	0	-4.498080254	0	30.42018127	-15.48674965	78.08045959	1.0
25	0	-4.498080254	0	22.673769	-14.73050785	81.64128113	1.0
26	0	-4.498080254	0	12.05739689	-13.62399101	84.42263031	1.0
[LeftFoot]
19	0	-3.729400158	0	-80.38858795	115.9186935	-14.24269485	1.0
20	0	-3.729400158	0	-79.01190186	117.0721436	-11.48776817	1.0
21	0	-3.729400158	0	-79.11170959	118.0927582	-10.33616638	1.0
22	0	-3.729400158	0	-78.44396973	118.6433716	-8.91065979	1.0
23	0	-3.729400158	0	-80.55350494	118.5629272	-11.05846214	1.0
24	0	-3.729400158	0	-83.54968262	117.3418503	-14.4508934	1.0
25	0	-3.729400158	0	-88.55712128	114.0149002	-21.98182678	1.0
26	0	-3.729400158	0	-91.86997986	115.6280823	-29.2605896	1.0
[LeftToeBase]
19	0	-0.5911099911	1.364109993	0	0	0	1.0
20	0	-0.5911099911	1.364109993	0	0	0	1.0
21	0	-0.5911099911	1.364109993	0	0	0	1.0
22	0	-0.5911099911	1.364109993	0	0	0	1.0
23	0	-0.5911099911	1.364109993	0	0	0	1.0
24	0	-0.5911099911	1.364109993	0	0	0	1.0
25	0	-0.5911099911	1.364109993	0	0	0	1.0
26	0	-0.5911099911	1.364109993	0	0	0	1.0
[RightUpLeg]
19	-0.9094099998	0	0	2.354622126	-15.32317734	89.35838318	1.0
20	-0.9094099998	0	0	1.830514431	-17.27616882	89.63652039	1.0
21	-0.9094099998	0	0	0.3903210163	-19.47656059	90.10088348	1.0
22	-0.9094099998	0	0	-3.312565088	-20.69413376	90.11287689	1.0
23	-0.9094099998	0	0	-8.839381218	-20.19073105	90.71253967	1.0
24	-0.9094099998	0	0	-15.88723373	-18.75052452	92.32665253	1.0
25	-0.9094099998	0	0	-21.45568657	-17.04431915	94.33261871	1.0
26	-0.9094099998	0	0	-24.57881546	-14.77741718	96.66378784	1.0
[RightLeg]
19	0	-4.498080254	0	10.10575485	-4.310228348	88.24092102	1.0
20	0	-4.498080254	0	13.95455742	-4.641811371	86.39924622	1.0
21	0	-4.498080254	0	20.96878242	-8.0620327	80.86108398	1.0
22	0	-4.498080254	0	31.99722862	-10.82079697	72.19694519	1.0
23	0	-4.498080254	0	44.88087082	-6.407891273	66.93022919	1.0
24	0	-4.498080254	0	55.38477325	1.864761114	71.35734558	1.0
25	0	-4.498080254	0	58.97079086	4.873053074	76.51746368	1.0
26	0	-4.498080254	0	54.45071411	0.4177408218	73.84055328	1.0
[RightFoot]
19	0	-3.729400158	0	36.86014175	59.70321655	95.12500763	1.0
20	0	-3.729400158	0	39.98364258	58.9197731	100.3862152	1.0
21	0	-3.729400158	0	50.94168091	56.987854	113.4421005	1.0
22	0	-3.729400158	0	65.66294098	52.48595047	127.5831299	1.0
23	0	-3.729400158	0	69.9646759	52.96632385	125.2412643	1.0
24	0	-3.729400158	0	57.38425446	57.90783691	106.0998993	1.0
25	0	-3.729400158	0	54.6608429	56.96006393	102.6019974	1.0
26	0	-3.729400158	0	59.28607178	58.20713806	108.1253052	1.0
[RightToeBase]
19	0	-0.5911099911	1.364109993	0	0	0	1.0
20	0	-0.5911099911	1.364109993	0	0	0	1.0
21	0	-0.5911099911	1.364109993	0	0	0	1.0
22	0	-0.5911099911	1.364109993	0	0	0	1.0
23	0	-0.5911099911	1.364109993	0	0	0	1.0
24	0	-0.5911099911	1.364109993	0	0	0	1.0
25	0	-0.5911099911	1.364109993	0	0	0	1.0
26	0	-0.5911099911	1.364109993	0	0	0	1.0
[EndOfFile]
